<mxfile host="app.diagrams.net" modified="2020-11-28T03:02:24.175Z" agent="5.0 (Windows)" etag="6sCnyoIXiHeZxdoWSU4J" version="13.10.4" type="github">
  <diagram id="i6ycT5udkQKruZCcal8v" name="Page-1">
    <mxGraphModel dx="1401" dy="781" grid="1" gridSize="10" guides="1" tooltips="1" connect="1" arrows="1" fold="1" page="1" pageScale="1" pageWidth="850" pageHeight="1100" math="0" shadow="0">
      <root>
        <mxCell id="0" />
        <mxCell id="1" parent="0" />
        <mxCell id="qALc0oXiPU9BdHfqzSbK-43" value="abisan.region" style="shape=table;startSize=30;container=1;collapsible=1;childLayout=tableLayout;fixedRows=1;rowLines=0;fontStyle=1;align=center;resizeLast=1;" vertex="1" parent="1">
          <mxGeometry x="550" y="450" width="180" height="90" as="geometry" />
        </mxCell>
        <mxCell id="qALc0oXiPU9BdHfqzSbK-44" value="" style="shape=partialRectangle;collapsible=0;dropTarget=0;pointerEvents=0;fillColor=none;top=0;left=0;bottom=1;right=0;points=[[0,0.5],[1,0.5]];portConstraint=eastwest;" vertex="1" parent="qALc0oXiPU9BdHfqzSbK-43">
          <mxGeometry y="30" width="180" height="30" as="geometry" />
        </mxCell>
        <mxCell id="qALc0oXiPU9BdHfqzSbK-45" value="PK" style="shape=partialRectangle;connectable=0;fillColor=none;top=0;left=0;bottom=0;right=0;fontStyle=1;overflow=hidden;" vertex="1" parent="qALc0oXiPU9BdHfqzSbK-44">
          <mxGeometry width="30.000000000000227" height="30" as="geometry" />
        </mxCell>
        <mxCell id="qALc0oXiPU9BdHfqzSbK-46" value="region_id" style="shape=partialRectangle;connectable=0;fillColor=none;top=0;left=0;bottom=0;right=0;align=left;spacingLeft=6;fontStyle=0;overflow=hidden;" vertex="1" parent="qALc0oXiPU9BdHfqzSbK-44">
          <mxGeometry x="30.000000000000227" width="149.99999999999977" height="30" as="geometry" />
        </mxCell>
        <mxCell id="qALc0oXiPU9BdHfqzSbK-47" value="" style="shape=partialRectangle;collapsible=0;dropTarget=0;pointerEvents=0;fillColor=none;top=0;left=0;bottom=0;right=0;points=[[0,0.5],[1,0.5]];portConstraint=eastwest;" vertex="1" parent="qALc0oXiPU9BdHfqzSbK-43">
          <mxGeometry y="60" width="180" height="30" as="geometry" />
        </mxCell>
        <mxCell id="qALc0oXiPU9BdHfqzSbK-48" value="" style="shape=partialRectangle;connectable=0;fillColor=none;top=0;left=0;bottom=0;right=0;editable=1;overflow=hidden;" vertex="1" parent="qALc0oXiPU9BdHfqzSbK-47">
          <mxGeometry width="30.000000000000227" height="30" as="geometry" />
        </mxCell>
        <mxCell id="qALc0oXiPU9BdHfqzSbK-49" value="region_name" style="shape=partialRectangle;connectable=0;fillColor=none;top=0;left=0;bottom=0;right=0;align=left;spacingLeft=6;overflow=hidden;" vertex="1" parent="qALc0oXiPU9BdHfqzSbK-47">
          <mxGeometry x="30.000000000000227" width="149.99999999999977" height="30" as="geometry" />
        </mxCell>
        <mxCell id="qALc0oXiPU9BdHfqzSbK-1" value="abisan.departments" style="shape=table;startSize=30;container=1;collapsible=1;childLayout=tableLayout;fixedRows=1;rowLines=0;fontStyle=1;align=center;resizeLast=1;" vertex="1" parent="1">
          <mxGeometry x="280" y="40" width="180" height="150" as="geometry" />
        </mxCell>
        <mxCell id="qALc0oXiPU9BdHfqzSbK-2" value="" style="shape=partialRectangle;collapsible=0;dropTarget=0;pointerEvents=0;fillColor=none;top=0;left=0;bottom=1;right=0;points=[[0,0.5],[1,0.5]];portConstraint=eastwest;" vertex="1" parent="qALc0oXiPU9BdHfqzSbK-1">
          <mxGeometry y="30" width="180" height="30" as="geometry" />
        </mxCell>
        <mxCell id="qALc0oXiPU9BdHfqzSbK-3" value="PK" style="shape=partialRectangle;connectable=0;fillColor=none;top=0;left=0;bottom=0;right=0;fontStyle=1;overflow=hidden;" vertex="1" parent="qALc0oXiPU9BdHfqzSbK-2">
          <mxGeometry width="30" height="30" as="geometry" />
        </mxCell>
        <mxCell id="qALc0oXiPU9BdHfqzSbK-4" value="department_id" style="shape=partialRectangle;connectable=0;fillColor=none;top=0;left=0;bottom=0;right=0;align=left;spacingLeft=6;fontStyle=0;overflow=hidden;" vertex="1" parent="qALc0oXiPU9BdHfqzSbK-2">
          <mxGeometry x="30" width="150" height="30" as="geometry" />
        </mxCell>
        <mxCell id="qALc0oXiPU9BdHfqzSbK-5" value="" style="shape=partialRectangle;collapsible=0;dropTarget=0;pointerEvents=0;fillColor=none;top=0;left=0;bottom=0;right=0;points=[[0,0.5],[1,0.5]];portConstraint=eastwest;" vertex="1" parent="qALc0oXiPU9BdHfqzSbK-1">
          <mxGeometry y="60" width="180" height="30" as="geometry" />
        </mxCell>
        <mxCell id="qALc0oXiPU9BdHfqzSbK-6" value="" style="shape=partialRectangle;connectable=0;fillColor=none;top=0;left=0;bottom=0;right=0;editable=1;overflow=hidden;" vertex="1" parent="qALc0oXiPU9BdHfqzSbK-5">
          <mxGeometry width="30" height="30" as="geometry" />
        </mxCell>
        <mxCell id="qALc0oXiPU9BdHfqzSbK-7" value="department_name" style="shape=partialRectangle;connectable=0;fillColor=none;top=0;left=0;bottom=0;right=0;align=left;spacingLeft=6;overflow=hidden;" vertex="1" parent="qALc0oXiPU9BdHfqzSbK-5">
          <mxGeometry x="30" width="150" height="30" as="geometry" />
        </mxCell>
        <mxCell id="qALc0oXiPU9BdHfqzSbK-8" value="" style="shape=partialRectangle;collapsible=0;dropTarget=0;pointerEvents=0;fillColor=none;top=0;left=0;bottom=0;right=0;points=[[0,0.5],[1,0.5]];portConstraint=eastwest;" vertex="1" parent="qALc0oXiPU9BdHfqzSbK-1">
          <mxGeometry y="90" width="180" height="30" as="geometry" />
        </mxCell>
        <mxCell id="qALc0oXiPU9BdHfqzSbK-9" value="" style="shape=partialRectangle;connectable=0;fillColor=none;top=0;left=0;bottom=0;right=0;editable=1;overflow=hidden;" vertex="1" parent="qALc0oXiPU9BdHfqzSbK-8">
          <mxGeometry width="30" height="30" as="geometry" />
        </mxCell>
        <mxCell id="qALc0oXiPU9BdHfqzSbK-10" value="manager_id" style="shape=partialRectangle;connectable=0;fillColor=none;top=0;left=0;bottom=0;right=0;align=left;spacingLeft=6;overflow=hidden;" vertex="1" parent="qALc0oXiPU9BdHfqzSbK-8">
          <mxGeometry x="30" width="150" height="30" as="geometry" />
        </mxCell>
        <mxCell id="qALc0oXiPU9BdHfqzSbK-11" value="" style="shape=partialRectangle;collapsible=0;dropTarget=0;pointerEvents=0;fillColor=none;top=0;left=0;bottom=0;right=0;points=[[0,0.5],[1,0.5]];portConstraint=eastwest;" vertex="1" parent="qALc0oXiPU9BdHfqzSbK-1">
          <mxGeometry y="120" width="180" height="30" as="geometry" />
        </mxCell>
        <mxCell id="qALc0oXiPU9BdHfqzSbK-12" value="" style="shape=partialRectangle;connectable=0;fillColor=none;top=0;left=0;bottom=0;right=0;editable=1;overflow=hidden;" vertex="1" parent="qALc0oXiPU9BdHfqzSbK-11">
          <mxGeometry width="30" height="30" as="geometry" />
        </mxCell>
        <mxCell id="qALc0oXiPU9BdHfqzSbK-13" value="location_id" style="shape=partialRectangle;connectable=0;fillColor=none;top=0;left=0;bottom=0;right=0;align=left;spacingLeft=6;overflow=hidden;" vertex="1" parent="qALc0oXiPU9BdHfqzSbK-11">
          <mxGeometry x="30" width="150" height="30" as="geometry" />
        </mxCell>
        <mxCell id="qALc0oXiPU9BdHfqzSbK-14" value="abisan.locations" style="shape=table;startSize=30;container=1;collapsible=1;childLayout=tableLayout;fixedRows=1;rowLines=0;fontStyle=1;align=center;resizeLast=1;" vertex="1" parent="1">
          <mxGeometry x="550" y="40" width="180" height="200" as="geometry" />
        </mxCell>
        <mxCell id="qALc0oXiPU9BdHfqzSbK-15" value="" style="shape=partialRectangle;collapsible=0;dropTarget=0;pointerEvents=0;fillColor=none;top=0;left=0;bottom=1;right=0;points=[[0,0.5],[1,0.5]];portConstraint=eastwest;" vertex="1" parent="qALc0oXiPU9BdHfqzSbK-14">
          <mxGeometry y="30" width="180" height="30" as="geometry" />
        </mxCell>
        <mxCell id="qALc0oXiPU9BdHfqzSbK-16" value="PK" style="shape=partialRectangle;connectable=0;fillColor=none;top=0;left=0;bottom=0;right=0;fontStyle=1;overflow=hidden;" vertex="1" parent="qALc0oXiPU9BdHfqzSbK-15">
          <mxGeometry width="30" height="30" as="geometry" />
        </mxCell>
        <mxCell id="qALc0oXiPU9BdHfqzSbK-17" value="locations_id" style="shape=partialRectangle;connectable=0;fillColor=none;top=0;left=0;bottom=0;right=0;align=left;spacingLeft=6;fontStyle=0;overflow=hidden;" vertex="1" parent="qALc0oXiPU9BdHfqzSbK-15">
          <mxGeometry x="30" width="150" height="30" as="geometry" />
        </mxCell>
        <mxCell id="qALc0oXiPU9BdHfqzSbK-18" value="" style="shape=partialRectangle;collapsible=0;dropTarget=0;pointerEvents=0;fillColor=none;top=0;left=0;bottom=0;right=0;points=[[0,0.5],[1,0.5]];portConstraint=eastwest;" vertex="1" parent="qALc0oXiPU9BdHfqzSbK-14">
          <mxGeometry y="60" width="180" height="20" as="geometry" />
        </mxCell>
        <mxCell id="qALc0oXiPU9BdHfqzSbK-19" value="" style="shape=partialRectangle;connectable=0;fillColor=none;top=0;left=0;bottom=0;right=0;editable=1;overflow=hidden;" vertex="1" parent="qALc0oXiPU9BdHfqzSbK-18">
          <mxGeometry width="30" height="20" as="geometry" />
        </mxCell>
        <mxCell id="qALc0oXiPU9BdHfqzSbK-20" value="street_address" style="shape=partialRectangle;connectable=0;fillColor=none;top=0;left=0;bottom=0;right=0;align=left;spacingLeft=6;overflow=hidden;" vertex="1" parent="qALc0oXiPU9BdHfqzSbK-18">
          <mxGeometry x="30" width="150" height="20" as="geometry" />
        </mxCell>
        <mxCell id="qALc0oXiPU9BdHfqzSbK-21" value="" style="shape=partialRectangle;collapsible=0;dropTarget=0;pointerEvents=0;fillColor=none;top=0;left=0;bottom=0;right=0;points=[[0,0.5],[1,0.5]];portConstraint=eastwest;" vertex="1" parent="qALc0oXiPU9BdHfqzSbK-14">
          <mxGeometry y="80" width="180" height="30" as="geometry" />
        </mxCell>
        <mxCell id="qALc0oXiPU9BdHfqzSbK-22" value="" style="shape=partialRectangle;connectable=0;fillColor=none;top=0;left=0;bottom=0;right=0;editable=1;overflow=hidden;" vertex="1" parent="qALc0oXiPU9BdHfqzSbK-21">
          <mxGeometry width="30" height="30" as="geometry" />
        </mxCell>
        <mxCell id="qALc0oXiPU9BdHfqzSbK-23" value="postal_code" style="shape=partialRectangle;connectable=0;fillColor=none;top=0;left=0;bottom=0;right=0;align=left;spacingLeft=6;overflow=hidden;" vertex="1" parent="qALc0oXiPU9BdHfqzSbK-21">
          <mxGeometry x="30" width="150" height="30" as="geometry" />
        </mxCell>
        <mxCell id="qALc0oXiPU9BdHfqzSbK-24" value="" style="shape=partialRectangle;collapsible=0;dropTarget=0;pointerEvents=0;fillColor=none;top=0;left=0;bottom=0;right=0;points=[[0,0.5],[1,0.5]];portConstraint=eastwest;" vertex="1" parent="qALc0oXiPU9BdHfqzSbK-14">
          <mxGeometry y="110" width="180" height="30" as="geometry" />
        </mxCell>
        <mxCell id="qALc0oXiPU9BdHfqzSbK-25" value="" style="shape=partialRectangle;connectable=0;fillColor=none;top=0;left=0;bottom=0;right=0;editable=1;overflow=hidden;" vertex="1" parent="qALc0oXiPU9BdHfqzSbK-24">
          <mxGeometry width="30" height="30" as="geometry" />
        </mxCell>
        <mxCell id="qALc0oXiPU9BdHfqzSbK-26" value="city" style="shape=partialRectangle;connectable=0;fillColor=none;top=0;left=0;bottom=0;right=0;align=left;spacingLeft=6;overflow=hidden;" vertex="1" parent="qALc0oXiPU9BdHfqzSbK-24">
          <mxGeometry x="30" width="150" height="30" as="geometry" />
        </mxCell>
        <mxCell id="qALc0oXiPU9BdHfqzSbK-136" value="" style="shape=partialRectangle;collapsible=0;dropTarget=0;pointerEvents=0;fillColor=none;top=0;left=0;bottom=0;right=0;points=[[0,0.5],[1,0.5]];portConstraint=eastwest;" vertex="1" parent="qALc0oXiPU9BdHfqzSbK-14">
          <mxGeometry y="140" width="180" height="30" as="geometry" />
        </mxCell>
        <mxCell id="qALc0oXiPU9BdHfqzSbK-137" value="" style="shape=partialRectangle;connectable=0;fillColor=none;top=0;left=0;bottom=0;right=0;editable=1;overflow=hidden;" vertex="1" parent="qALc0oXiPU9BdHfqzSbK-136">
          <mxGeometry width="30" height="30" as="geometry" />
        </mxCell>
        <mxCell id="qALc0oXiPU9BdHfqzSbK-138" value="state_province" style="shape=partialRectangle;connectable=0;fillColor=none;top=0;left=0;bottom=0;right=0;align=left;spacingLeft=6;overflow=hidden;" vertex="1" parent="qALc0oXiPU9BdHfqzSbK-136">
          <mxGeometry x="30" width="150" height="30" as="geometry" />
        </mxCell>
        <mxCell id="qALc0oXiPU9BdHfqzSbK-139" value="" style="shape=partialRectangle;collapsible=0;dropTarget=0;pointerEvents=0;fillColor=none;top=0;left=0;bottom=0;right=0;points=[[0,0.5],[1,0.5]];portConstraint=eastwest;" vertex="1" parent="qALc0oXiPU9BdHfqzSbK-14">
          <mxGeometry y="170" width="180" height="30" as="geometry" />
        </mxCell>
        <mxCell id="qALc0oXiPU9BdHfqzSbK-140" value="" style="shape=partialRectangle;connectable=0;fillColor=none;top=0;left=0;bottom=0;right=0;editable=1;overflow=hidden;" vertex="1" parent="qALc0oXiPU9BdHfqzSbK-139">
          <mxGeometry width="30" height="30" as="geometry" />
        </mxCell>
        <mxCell id="qALc0oXiPU9BdHfqzSbK-141" value="country_id" style="shape=partialRectangle;connectable=0;fillColor=none;top=0;left=0;bottom=0;right=0;align=left;spacingLeft=6;overflow=hidden;" vertex="1" parent="qALc0oXiPU9BdHfqzSbK-139">
          <mxGeometry x="30" width="150" height="30" as="geometry" />
        </mxCell>
        <mxCell id="qALc0oXiPU9BdHfqzSbK-29" value="abisan.countries" style="shape=table;startSize=30;container=1;collapsible=1;childLayout=tableLayout;fixedRows=1;rowLines=0;fontStyle=1;align=center;resizeLast=1;" vertex="1" parent="1">
          <mxGeometry x="550" y="280" width="180" height="120" as="geometry" />
        </mxCell>
        <mxCell id="qALc0oXiPU9BdHfqzSbK-30" value="" style="shape=partialRectangle;collapsible=0;dropTarget=0;pointerEvents=0;fillColor=none;top=0;left=0;bottom=1;right=0;points=[[0,0.5],[1,0.5]];portConstraint=eastwest;" vertex="1" parent="qALc0oXiPU9BdHfqzSbK-29">
          <mxGeometry y="30" width="180" height="30" as="geometry" />
        </mxCell>
        <mxCell id="qALc0oXiPU9BdHfqzSbK-31" value="PK" style="shape=partialRectangle;connectable=0;fillColor=none;top=0;left=0;bottom=0;right=0;fontStyle=1;overflow=hidden;" vertex="1" parent="qALc0oXiPU9BdHfqzSbK-30">
          <mxGeometry width="30" height="30" as="geometry" />
        </mxCell>
        <mxCell id="qALc0oXiPU9BdHfqzSbK-32" value="country_id" style="shape=partialRectangle;connectable=0;fillColor=none;top=0;left=0;bottom=0;right=0;align=left;spacingLeft=6;fontStyle=0;overflow=hidden;" vertex="1" parent="qALc0oXiPU9BdHfqzSbK-30">
          <mxGeometry x="30" width="150" height="30" as="geometry" />
        </mxCell>
        <mxCell id="qALc0oXiPU9BdHfqzSbK-33" value="" style="shape=partialRectangle;collapsible=0;dropTarget=0;pointerEvents=0;fillColor=none;top=0;left=0;bottom=0;right=0;points=[[0,0.5],[1,0.5]];portConstraint=eastwest;" vertex="1" parent="qALc0oXiPU9BdHfqzSbK-29">
          <mxGeometry y="60" width="180" height="30" as="geometry" />
        </mxCell>
        <mxCell id="qALc0oXiPU9BdHfqzSbK-34" value="" style="shape=partialRectangle;connectable=0;fillColor=none;top=0;left=0;bottom=0;right=0;editable=1;overflow=hidden;" vertex="1" parent="qALc0oXiPU9BdHfqzSbK-33">
          <mxGeometry width="30" height="30" as="geometry" />
        </mxCell>
        <mxCell id="qALc0oXiPU9BdHfqzSbK-35" value="country_name" style="shape=partialRectangle;connectable=0;fillColor=none;top=0;left=0;bottom=0;right=0;align=left;spacingLeft=6;overflow=hidden;" vertex="1" parent="qALc0oXiPU9BdHfqzSbK-33">
          <mxGeometry x="30" width="150" height="30" as="geometry" />
        </mxCell>
        <mxCell id="qALc0oXiPU9BdHfqzSbK-36" value="" style="shape=partialRectangle;collapsible=0;dropTarget=0;pointerEvents=0;fillColor=none;top=0;left=0;bottom=0;right=0;points=[[0,0.5],[1,0.5]];portConstraint=eastwest;" vertex="1" parent="qALc0oXiPU9BdHfqzSbK-29">
          <mxGeometry y="90" width="180" height="30" as="geometry" />
        </mxCell>
        <mxCell id="qALc0oXiPU9BdHfqzSbK-37" value="" style="shape=partialRectangle;connectable=0;fillColor=none;top=0;left=0;bottom=0;right=0;editable=1;overflow=hidden;" vertex="1" parent="qALc0oXiPU9BdHfqzSbK-36">
          <mxGeometry width="30" height="30" as="geometry" />
        </mxCell>
        <mxCell id="qALc0oXiPU9BdHfqzSbK-38" value="region_id" style="shape=partialRectangle;connectable=0;fillColor=none;top=0;left=0;bottom=0;right=0;align=left;spacingLeft=6;overflow=hidden;" vertex="1" parent="qALc0oXiPU9BdHfqzSbK-36">
          <mxGeometry x="30" width="150" height="30" as="geometry" />
        </mxCell>
        <mxCell id="qALc0oXiPU9BdHfqzSbK-56" value="abisan.job_history" style="shape=table;startSize=30;container=1;collapsible=1;childLayout=tableLayout;fixedRows=1;rowLines=0;fontStyle=1;align=center;resizeLast=1;" vertex="1" parent="1">
          <mxGeometry x="40" y="160" width="180" height="180" as="geometry" />
        </mxCell>
        <mxCell id="qALc0oXiPU9BdHfqzSbK-57" value="" style="shape=partialRectangle;collapsible=0;dropTarget=0;pointerEvents=0;fillColor=none;top=0;left=0;bottom=1;right=0;points=[[0,0.5],[1,0.5]];portConstraint=eastwest;" vertex="1" parent="qALc0oXiPU9BdHfqzSbK-56">
          <mxGeometry y="30" width="180" height="30" as="geometry" />
        </mxCell>
        <mxCell id="qALc0oXiPU9BdHfqzSbK-58" value="PK" style="shape=partialRectangle;connectable=0;fillColor=none;top=0;left=0;bottom=0;right=0;fontStyle=1;overflow=hidden;" vertex="1" parent="qALc0oXiPU9BdHfqzSbK-57">
          <mxGeometry width="30" height="30" as="geometry" />
        </mxCell>
        <mxCell id="qALc0oXiPU9BdHfqzSbK-59" value="employee_id" style="shape=partialRectangle;connectable=0;fillColor=none;top=0;left=0;bottom=0;right=0;align=left;spacingLeft=6;fontStyle=0;overflow=hidden;" vertex="1" parent="qALc0oXiPU9BdHfqzSbK-57">
          <mxGeometry x="30" width="150" height="30" as="geometry" />
        </mxCell>
        <mxCell id="qALc0oXiPU9BdHfqzSbK-60" value="" style="shape=partialRectangle;collapsible=0;dropTarget=0;pointerEvents=0;fillColor=none;top=0;left=0;bottom=0;right=0;points=[[0,0.5],[1,0.5]];portConstraint=eastwest;" vertex="1" parent="qALc0oXiPU9BdHfqzSbK-56">
          <mxGeometry y="60" width="180" height="30" as="geometry" />
        </mxCell>
        <mxCell id="qALc0oXiPU9BdHfqzSbK-61" value="" style="shape=partialRectangle;connectable=0;fillColor=none;top=0;left=0;bottom=0;right=0;editable=1;overflow=hidden;" vertex="1" parent="qALc0oXiPU9BdHfqzSbK-60">
          <mxGeometry width="30" height="30" as="geometry" />
        </mxCell>
        <mxCell id="qALc0oXiPU9BdHfqzSbK-62" value="start_date" style="shape=partialRectangle;connectable=0;fillColor=none;top=0;left=0;bottom=0;right=0;align=left;spacingLeft=6;overflow=hidden;" vertex="1" parent="qALc0oXiPU9BdHfqzSbK-60">
          <mxGeometry x="30" width="150" height="30" as="geometry" />
        </mxCell>
        <mxCell id="qALc0oXiPU9BdHfqzSbK-63" value="" style="shape=partialRectangle;collapsible=0;dropTarget=0;pointerEvents=0;fillColor=none;top=0;left=0;bottom=0;right=0;points=[[0,0.5],[1,0.5]];portConstraint=eastwest;" vertex="1" parent="qALc0oXiPU9BdHfqzSbK-56">
          <mxGeometry y="90" width="180" height="30" as="geometry" />
        </mxCell>
        <mxCell id="qALc0oXiPU9BdHfqzSbK-64" value="" style="shape=partialRectangle;connectable=0;fillColor=none;top=0;left=0;bottom=0;right=0;editable=1;overflow=hidden;" vertex="1" parent="qALc0oXiPU9BdHfqzSbK-63">
          <mxGeometry width="30" height="30" as="geometry" />
        </mxCell>
        <mxCell id="qALc0oXiPU9BdHfqzSbK-65" value="end_date" style="shape=partialRectangle;connectable=0;fillColor=none;top=0;left=0;bottom=0;right=0;align=left;spacingLeft=6;overflow=hidden;" vertex="1" parent="qALc0oXiPU9BdHfqzSbK-63">
          <mxGeometry x="30" width="150" height="30" as="geometry" />
        </mxCell>
        <mxCell id="qALc0oXiPU9BdHfqzSbK-66" value="" style="shape=partialRectangle;collapsible=0;dropTarget=0;pointerEvents=0;fillColor=none;top=0;left=0;bottom=0;right=0;points=[[0,0.5],[1,0.5]];portConstraint=eastwest;" vertex="1" parent="qALc0oXiPU9BdHfqzSbK-56">
          <mxGeometry y="120" width="180" height="30" as="geometry" />
        </mxCell>
        <mxCell id="qALc0oXiPU9BdHfqzSbK-67" value="" style="shape=partialRectangle;connectable=0;fillColor=none;top=0;left=0;bottom=0;right=0;editable=1;overflow=hidden;" vertex="1" parent="qALc0oXiPU9BdHfqzSbK-66">
          <mxGeometry width="30" height="30" as="geometry" />
        </mxCell>
        <mxCell id="qALc0oXiPU9BdHfqzSbK-68" value="job_id" style="shape=partialRectangle;connectable=0;fillColor=none;top=0;left=0;bottom=0;right=0;align=left;spacingLeft=6;overflow=hidden;" vertex="1" parent="qALc0oXiPU9BdHfqzSbK-66">
          <mxGeometry x="30" width="150" height="30" as="geometry" />
        </mxCell>
        <mxCell id="qALc0oXiPU9BdHfqzSbK-133" value="" style="shape=partialRectangle;collapsible=0;dropTarget=0;pointerEvents=0;fillColor=none;top=0;left=0;bottom=0;right=0;points=[[0,0.5],[1,0.5]];portConstraint=eastwest;" vertex="1" parent="qALc0oXiPU9BdHfqzSbK-56">
          <mxGeometry y="150" width="180" height="30" as="geometry" />
        </mxCell>
        <mxCell id="qALc0oXiPU9BdHfqzSbK-134" value="" style="shape=partialRectangle;connectable=0;fillColor=none;top=0;left=0;bottom=0;right=0;editable=1;overflow=hidden;" vertex="1" parent="qALc0oXiPU9BdHfqzSbK-133">
          <mxGeometry width="30" height="30" as="geometry" />
        </mxCell>
        <mxCell id="qALc0oXiPU9BdHfqzSbK-135" value="department_id" style="shape=partialRectangle;connectable=0;fillColor=none;top=0;left=0;bottom=0;right=0;align=left;spacingLeft=6;overflow=hidden;" vertex="1" parent="qALc0oXiPU9BdHfqzSbK-133">
          <mxGeometry x="30" width="150" height="30" as="geometry" />
        </mxCell>
        <mxCell id="qALc0oXiPU9BdHfqzSbK-69" value="abisan.jobs" style="shape=table;startSize=30;container=1;collapsible=1;childLayout=tableLayout;fixedRows=1;rowLines=0;fontStyle=1;align=center;resizeLast=1;" vertex="1" parent="1">
          <mxGeometry x="40" y="380" width="180" height="160" as="geometry" />
        </mxCell>
        <mxCell id="qALc0oXiPU9BdHfqzSbK-70" value="" style="shape=partialRectangle;collapsible=0;dropTarget=0;pointerEvents=0;fillColor=none;top=0;left=0;bottom=1;right=0;points=[[0,0.5],[1,0.5]];portConstraint=eastwest;" vertex="1" parent="qALc0oXiPU9BdHfqzSbK-69">
          <mxGeometry y="30" width="180" height="30" as="geometry" />
        </mxCell>
        <mxCell id="qALc0oXiPU9BdHfqzSbK-71" value="PK" style="shape=partialRectangle;connectable=0;fillColor=none;top=0;left=0;bottom=0;right=0;fontStyle=1;overflow=hidden;" vertex="1" parent="qALc0oXiPU9BdHfqzSbK-70">
          <mxGeometry width="30" height="30" as="geometry" />
        </mxCell>
        <mxCell id="qALc0oXiPU9BdHfqzSbK-72" value="jobs_id" style="shape=partialRectangle;connectable=0;fillColor=none;top=0;left=0;bottom=0;right=0;align=left;spacingLeft=6;fontStyle=0;overflow=hidden;" vertex="1" parent="qALc0oXiPU9BdHfqzSbK-70">
          <mxGeometry x="30" width="150" height="30" as="geometry" />
        </mxCell>
        <mxCell id="qALc0oXiPU9BdHfqzSbK-73" value="" style="shape=partialRectangle;collapsible=0;dropTarget=0;pointerEvents=0;fillColor=none;top=0;left=0;bottom=0;right=0;points=[[0,0.5],[1,0.5]];portConstraint=eastwest;" vertex="1" parent="qALc0oXiPU9BdHfqzSbK-69">
          <mxGeometry y="60" width="180" height="30" as="geometry" />
        </mxCell>
        <mxCell id="qALc0oXiPU9BdHfqzSbK-74" value="" style="shape=partialRectangle;connectable=0;fillColor=none;top=0;left=0;bottom=0;right=0;editable=1;overflow=hidden;" vertex="1" parent="qALc0oXiPU9BdHfqzSbK-73">
          <mxGeometry width="30" height="30" as="geometry" />
        </mxCell>
        <mxCell id="qALc0oXiPU9BdHfqzSbK-75" value="job_title" style="shape=partialRectangle;connectable=0;fillColor=none;top=0;left=0;bottom=0;right=0;align=left;spacingLeft=6;overflow=hidden;" vertex="1" parent="qALc0oXiPU9BdHfqzSbK-73">
          <mxGeometry x="30" width="150" height="30" as="geometry" />
        </mxCell>
        <mxCell id="qALc0oXiPU9BdHfqzSbK-76" value="" style="shape=partialRectangle;collapsible=0;dropTarget=0;pointerEvents=0;fillColor=none;top=0;left=0;bottom=0;right=0;points=[[0,0.5],[1,0.5]];portConstraint=eastwest;" vertex="1" parent="qALc0oXiPU9BdHfqzSbK-69">
          <mxGeometry y="90" width="180" height="30" as="geometry" />
        </mxCell>
        <mxCell id="qALc0oXiPU9BdHfqzSbK-77" value="" style="shape=partialRectangle;connectable=0;fillColor=none;top=0;left=0;bottom=0;right=0;editable=1;overflow=hidden;" vertex="1" parent="qALc0oXiPU9BdHfqzSbK-76">
          <mxGeometry width="30" height="30" as="geometry" />
        </mxCell>
        <mxCell id="qALc0oXiPU9BdHfqzSbK-78" value="min_salary" style="shape=partialRectangle;connectable=0;fillColor=none;top=0;left=0;bottom=0;right=0;align=left;spacingLeft=6;overflow=hidden;" vertex="1" parent="qALc0oXiPU9BdHfqzSbK-76">
          <mxGeometry x="30" width="150" height="30" as="geometry" />
        </mxCell>
        <mxCell id="qALc0oXiPU9BdHfqzSbK-79" value="" style="shape=partialRectangle;collapsible=0;dropTarget=0;pointerEvents=0;fillColor=none;top=0;left=0;bottom=0;right=0;points=[[0,0.5],[1,0.5]];portConstraint=eastwest;" vertex="1" parent="qALc0oXiPU9BdHfqzSbK-69">
          <mxGeometry y="120" width="180" height="30" as="geometry" />
        </mxCell>
        <mxCell id="qALc0oXiPU9BdHfqzSbK-80" value="" style="shape=partialRectangle;connectable=0;fillColor=none;top=0;left=0;bottom=0;right=0;editable=1;overflow=hidden;" vertex="1" parent="qALc0oXiPU9BdHfqzSbK-79">
          <mxGeometry width="30" height="30" as="geometry" />
        </mxCell>
        <mxCell id="qALc0oXiPU9BdHfqzSbK-81" value="max_salary" style="shape=partialRectangle;connectable=0;fillColor=none;top=0;left=0;bottom=0;right=0;align=left;spacingLeft=6;overflow=hidden;" vertex="1" parent="qALc0oXiPU9BdHfqzSbK-79">
          <mxGeometry x="30" width="150" height="30" as="geometry" />
        </mxCell>
        <mxCell id="qALc0oXiPU9BdHfqzSbK-83" value="abisan.employees" style="shape=table;startSize=30;container=1;collapsible=1;childLayout=tableLayout;fixedRows=1;rowLines=0;fontStyle=1;align=center;resizeLast=1;" vertex="1" parent="1">
          <mxGeometry x="280" y="230" width="180" height="360" as="geometry" />
        </mxCell>
        <mxCell id="qALc0oXiPU9BdHfqzSbK-84" value="" style="shape=partialRectangle;collapsible=0;dropTarget=0;pointerEvents=0;fillColor=none;top=0;left=0;bottom=1;right=0;points=[[0,0.5],[1,0.5]];portConstraint=eastwest;" vertex="1" parent="qALc0oXiPU9BdHfqzSbK-83">
          <mxGeometry y="30" width="180" height="30" as="geometry" />
        </mxCell>
        <mxCell id="qALc0oXiPU9BdHfqzSbK-85" value="PK" style="shape=partialRectangle;connectable=0;fillColor=none;top=0;left=0;bottom=0;right=0;fontStyle=1;overflow=hidden;" vertex="1" parent="qALc0oXiPU9BdHfqzSbK-84">
          <mxGeometry width="30" height="30" as="geometry" />
        </mxCell>
        <mxCell id="qALc0oXiPU9BdHfqzSbK-86" value="employee_id" style="shape=partialRectangle;connectable=0;fillColor=none;top=0;left=0;bottom=0;right=0;align=left;spacingLeft=6;fontStyle=0;overflow=hidden;" vertex="1" parent="qALc0oXiPU9BdHfqzSbK-84">
          <mxGeometry x="30" width="150" height="30" as="geometry" />
        </mxCell>
        <mxCell id="qALc0oXiPU9BdHfqzSbK-87" value="" style="shape=partialRectangle;collapsible=0;dropTarget=0;pointerEvents=0;fillColor=none;top=0;left=0;bottom=0;right=0;points=[[0,0.5],[1,0.5]];portConstraint=eastwest;" vertex="1" parent="qALc0oXiPU9BdHfqzSbK-83">
          <mxGeometry y="60" width="180" height="30" as="geometry" />
        </mxCell>
        <mxCell id="qALc0oXiPU9BdHfqzSbK-88" value="" style="shape=partialRectangle;connectable=0;fillColor=none;top=0;left=0;bottom=0;right=0;editable=1;overflow=hidden;" vertex="1" parent="qALc0oXiPU9BdHfqzSbK-87">
          <mxGeometry width="30" height="30" as="geometry" />
        </mxCell>
        <mxCell id="qALc0oXiPU9BdHfqzSbK-89" value="first_name" style="shape=partialRectangle;connectable=0;fillColor=none;top=0;left=0;bottom=0;right=0;align=left;spacingLeft=6;overflow=hidden;" vertex="1" parent="qALc0oXiPU9BdHfqzSbK-87">
          <mxGeometry x="30" width="150" height="30" as="geometry" />
        </mxCell>
        <mxCell id="qALc0oXiPU9BdHfqzSbK-90" value="" style="shape=partialRectangle;collapsible=0;dropTarget=0;pointerEvents=0;fillColor=none;top=0;left=0;bottom=0;right=0;points=[[0,0.5],[1,0.5]];portConstraint=eastwest;" vertex="1" parent="qALc0oXiPU9BdHfqzSbK-83">
          <mxGeometry y="90" width="180" height="30" as="geometry" />
        </mxCell>
        <mxCell id="qALc0oXiPU9BdHfqzSbK-91" value="" style="shape=partialRectangle;connectable=0;fillColor=none;top=0;left=0;bottom=0;right=0;editable=1;overflow=hidden;" vertex="1" parent="qALc0oXiPU9BdHfqzSbK-90">
          <mxGeometry width="30" height="30" as="geometry" />
        </mxCell>
        <mxCell id="qALc0oXiPU9BdHfqzSbK-92" value="last_name" style="shape=partialRectangle;connectable=0;fillColor=none;top=0;left=0;bottom=0;right=0;align=left;spacingLeft=6;overflow=hidden;" vertex="1" parent="qALc0oXiPU9BdHfqzSbK-90">
          <mxGeometry x="30" width="150" height="30" as="geometry" />
        </mxCell>
        <mxCell id="qALc0oXiPU9BdHfqzSbK-93" value="" style="shape=partialRectangle;collapsible=0;dropTarget=0;pointerEvents=0;fillColor=none;top=0;left=0;bottom=0;right=0;points=[[0,0.5],[1,0.5]];portConstraint=eastwest;" vertex="1" parent="qALc0oXiPU9BdHfqzSbK-83">
          <mxGeometry y="120" width="180" height="30" as="geometry" />
        </mxCell>
        <mxCell id="qALc0oXiPU9BdHfqzSbK-94" value="" style="shape=partialRectangle;connectable=0;fillColor=none;top=0;left=0;bottom=0;right=0;editable=1;overflow=hidden;" vertex="1" parent="qALc0oXiPU9BdHfqzSbK-93">
          <mxGeometry width="30" height="30" as="geometry" />
        </mxCell>
        <mxCell id="qALc0oXiPU9BdHfqzSbK-95" value="email" style="shape=partialRectangle;connectable=0;fillColor=none;top=0;left=0;bottom=0;right=0;align=left;spacingLeft=6;overflow=hidden;" vertex="1" parent="qALc0oXiPU9BdHfqzSbK-93">
          <mxGeometry x="30" width="150" height="30" as="geometry" />
        </mxCell>
        <mxCell id="qALc0oXiPU9BdHfqzSbK-109" value="" style="shape=partialRectangle;collapsible=0;dropTarget=0;pointerEvents=0;fillColor=none;top=0;left=0;bottom=0;right=0;points=[[0,0.5],[1,0.5]];portConstraint=eastwest;" vertex="1" parent="qALc0oXiPU9BdHfqzSbK-83">
          <mxGeometry y="150" width="180" height="30" as="geometry" />
        </mxCell>
        <mxCell id="qALc0oXiPU9BdHfqzSbK-110" value="" style="shape=partialRectangle;connectable=0;fillColor=none;top=0;left=0;bottom=0;right=0;editable=1;overflow=hidden;" vertex="1" parent="qALc0oXiPU9BdHfqzSbK-109">
          <mxGeometry width="30" height="30" as="geometry" />
        </mxCell>
        <mxCell id="qALc0oXiPU9BdHfqzSbK-111" value="phone_number" style="shape=partialRectangle;connectable=0;fillColor=none;top=0;left=0;bottom=0;right=0;align=left;spacingLeft=6;overflow=hidden;" vertex="1" parent="qALc0oXiPU9BdHfqzSbK-109">
          <mxGeometry x="30" width="150" height="30" as="geometry" />
        </mxCell>
        <mxCell id="qALc0oXiPU9BdHfqzSbK-112" value="" style="shape=partialRectangle;collapsible=0;dropTarget=0;pointerEvents=0;fillColor=none;top=0;left=0;bottom=0;right=0;points=[[0,0.5],[1,0.5]];portConstraint=eastwest;" vertex="1" parent="qALc0oXiPU9BdHfqzSbK-83">
          <mxGeometry y="180" width="180" height="30" as="geometry" />
        </mxCell>
        <mxCell id="qALc0oXiPU9BdHfqzSbK-113" value="" style="shape=partialRectangle;connectable=0;fillColor=none;top=0;left=0;bottom=0;right=0;editable=1;overflow=hidden;" vertex="1" parent="qALc0oXiPU9BdHfqzSbK-112">
          <mxGeometry width="30" height="30" as="geometry" />
        </mxCell>
        <mxCell id="qALc0oXiPU9BdHfqzSbK-114" value="hire_date" style="shape=partialRectangle;connectable=0;fillColor=none;top=0;left=0;bottom=0;right=0;align=left;spacingLeft=6;overflow=hidden;" vertex="1" parent="qALc0oXiPU9BdHfqzSbK-112">
          <mxGeometry x="30" width="150" height="30" as="geometry" />
        </mxCell>
        <mxCell id="qALc0oXiPU9BdHfqzSbK-115" value="" style="shape=partialRectangle;collapsible=0;dropTarget=0;pointerEvents=0;fillColor=none;top=0;left=0;bottom=0;right=0;points=[[0,0.5],[1,0.5]];portConstraint=eastwest;" vertex="1" parent="qALc0oXiPU9BdHfqzSbK-83">
          <mxGeometry y="210" width="180" height="30" as="geometry" />
        </mxCell>
        <mxCell id="qALc0oXiPU9BdHfqzSbK-116" value="" style="shape=partialRectangle;connectable=0;fillColor=none;top=0;left=0;bottom=0;right=0;editable=1;overflow=hidden;" vertex="1" parent="qALc0oXiPU9BdHfqzSbK-115">
          <mxGeometry width="30" height="30" as="geometry" />
        </mxCell>
        <mxCell id="qALc0oXiPU9BdHfqzSbK-117" value="job_id" style="shape=partialRectangle;connectable=0;fillColor=none;top=0;left=0;bottom=0;right=0;align=left;spacingLeft=6;overflow=hidden;" vertex="1" parent="qALc0oXiPU9BdHfqzSbK-115">
          <mxGeometry x="30" width="150" height="30" as="geometry" />
        </mxCell>
        <mxCell id="qALc0oXiPU9BdHfqzSbK-118" value="" style="shape=partialRectangle;collapsible=0;dropTarget=0;pointerEvents=0;fillColor=none;top=0;left=0;bottom=0;right=0;points=[[0,0.5],[1,0.5]];portConstraint=eastwest;" vertex="1" parent="qALc0oXiPU9BdHfqzSbK-83">
          <mxGeometry y="240" width="180" height="30" as="geometry" />
        </mxCell>
        <mxCell id="qALc0oXiPU9BdHfqzSbK-119" value="" style="shape=partialRectangle;connectable=0;fillColor=none;top=0;left=0;bottom=0;right=0;editable=1;overflow=hidden;" vertex="1" parent="qALc0oXiPU9BdHfqzSbK-118">
          <mxGeometry width="30" height="30" as="geometry" />
        </mxCell>
        <mxCell id="qALc0oXiPU9BdHfqzSbK-120" value="salary" style="shape=partialRectangle;connectable=0;fillColor=none;top=0;left=0;bottom=0;right=0;align=left;spacingLeft=6;overflow=hidden;" vertex="1" parent="qALc0oXiPU9BdHfqzSbK-118">
          <mxGeometry x="30" width="150" height="30" as="geometry" />
        </mxCell>
        <mxCell id="qALc0oXiPU9BdHfqzSbK-121" value="" style="shape=partialRectangle;collapsible=0;dropTarget=0;pointerEvents=0;fillColor=none;top=0;left=0;bottom=0;right=0;points=[[0,0.5],[1,0.5]];portConstraint=eastwest;" vertex="1" parent="qALc0oXiPU9BdHfqzSbK-83">
          <mxGeometry y="270" width="180" height="30" as="geometry" />
        </mxCell>
        <mxCell id="qALc0oXiPU9BdHfqzSbK-122" value="" style="shape=partialRectangle;connectable=0;fillColor=none;top=0;left=0;bottom=0;right=0;editable=1;overflow=hidden;" vertex="1" parent="qALc0oXiPU9BdHfqzSbK-121">
          <mxGeometry width="30" height="30" as="geometry" />
        </mxCell>
        <mxCell id="qALc0oXiPU9BdHfqzSbK-123" value="commission_pct" style="shape=partialRectangle;connectable=0;fillColor=none;top=0;left=0;bottom=0;right=0;align=left;spacingLeft=6;overflow=hidden;" vertex="1" parent="qALc0oXiPU9BdHfqzSbK-121">
          <mxGeometry x="30" width="150" height="30" as="geometry" />
        </mxCell>
        <mxCell id="qALc0oXiPU9BdHfqzSbK-124" value="" style="shape=partialRectangle;collapsible=0;dropTarget=0;pointerEvents=0;fillColor=none;top=0;left=0;bottom=0;right=0;points=[[0,0.5],[1,0.5]];portConstraint=eastwest;" vertex="1" parent="qALc0oXiPU9BdHfqzSbK-83">
          <mxGeometry y="300" width="180" height="30" as="geometry" />
        </mxCell>
        <mxCell id="qALc0oXiPU9BdHfqzSbK-125" value="" style="shape=partialRectangle;connectable=0;fillColor=none;top=0;left=0;bottom=0;right=0;editable=1;overflow=hidden;" vertex="1" parent="qALc0oXiPU9BdHfqzSbK-124">
          <mxGeometry width="30" height="30" as="geometry" />
        </mxCell>
        <mxCell id="qALc0oXiPU9BdHfqzSbK-126" value="manager_id" style="shape=partialRectangle;connectable=0;fillColor=none;top=0;left=0;bottom=0;right=0;align=left;spacingLeft=6;overflow=hidden;" vertex="1" parent="qALc0oXiPU9BdHfqzSbK-124">
          <mxGeometry x="30" width="150" height="30" as="geometry" />
        </mxCell>
        <mxCell id="qALc0oXiPU9BdHfqzSbK-127" value="" style="shape=partialRectangle;collapsible=0;dropTarget=0;pointerEvents=0;fillColor=none;top=0;left=0;bottom=0;right=0;points=[[0,0.5],[1,0.5]];portConstraint=eastwest;" vertex="1" parent="qALc0oXiPU9BdHfqzSbK-83">
          <mxGeometry y="330" width="180" height="30" as="geometry" />
        </mxCell>
        <mxCell id="qALc0oXiPU9BdHfqzSbK-128" value="" style="shape=partialRectangle;connectable=0;fillColor=none;top=0;left=0;bottom=0;right=0;editable=1;overflow=hidden;" vertex="1" parent="qALc0oXiPU9BdHfqzSbK-127">
          <mxGeometry width="30" height="30" as="geometry" />
        </mxCell>
        <mxCell id="qALc0oXiPU9BdHfqzSbK-129" value="department_id" style="shape=partialRectangle;connectable=0;fillColor=none;top=0;left=0;bottom=0;right=0;align=left;spacingLeft=6;overflow=hidden;" vertex="1" parent="qALc0oXiPU9BdHfqzSbK-127">
          <mxGeometry x="30" width="150" height="30" as="geometry" />
        </mxCell>
        <mxCell id="qALc0oXiPU9BdHfqzSbK-143" value="" style="edgeStyle=entityRelationEdgeStyle;fontSize=12;html=1;endArrow=ERmany;entryX=0;entryY=0.5;entryDx=0;entryDy=0;" edge="1" parent="1" target="qALc0oXiPU9BdHfqzSbK-109">
          <mxGeometry width="100" height="100" relative="1" as="geometry">
            <mxPoint x="220" y="480" as="sourcePoint" />
            <mxPoint x="320" y="380" as="targetPoint" />
          </mxGeometry>
        </mxCell>
        <mxCell id="qALc0oXiPU9BdHfqzSbK-144" value="" style="edgeStyle=entityRelationEdgeStyle;fontSize=12;html=1;endArrow=ERmany;" edge="1" parent="1">
          <mxGeometry width="100" height="100" relative="1" as="geometry">
            <mxPoint x="530" y="690" as="sourcePoint" />
            <mxPoint x="530" y="560" as="targetPoint" />
          </mxGeometry>
        </mxCell>
      </root>
    </mxGraphModel>
  </diagram>
</mxfile>
